<!--?xml version="1.0" standalone="no"?-->
              <svg id="sw-js-blob-svg" viewBox="0 0 100 100" xmlns="http://www.w3.org/2000/svg" version="1.1">
                    <defs> 
                        <linearGradient id="sw-gradient" x1="0" x2="1" y1="1" y2="0">
                            <stop id="stop1" stop-color="rgba(33, 33, 33, 1)" offset="0%"></stop>
                            <stop id="stop2" stop-color="rgba(33, 33, 33, 1)" offset="100%"></stop>
                        </linearGradient>
                    </defs>
                <path fill="url(#sw-gradient)" d="M18,-30.3C23.5,-27.9,28.3,-23.5,26.7,-18.1C25.1,-12.7,17.2,-6.4,15.1,-1.2C13,3.9,16.6,7.8,18.5,13.8C20.5,19.8,20.6,28,17.3,27.3C13.9,26.6,6.9,17,-0.6,18.1C-8.1,19.1,-16.3,30.7,-22.6,33.1C-28.9,35.5,-33.4,28.7,-35.7,21.6C-38.1,14.6,-38.3,7.3,-38.7,-0.2C-39.1,-7.7,-39.6,-15.5,-35.2,-18.9C-30.7,-22.3,-21.3,-21.4,-14.6,-23C-7.9,-24.7,-3.9,-28.9,1.1,-30.9C6.2,-32.8,12.4,-32.6,18,-30.3Z" width="100%" height="100%" transform="translate(50 50)" stroke-width="0" style="transition: all 0.3s ease 0s;" stroke="url(#sw-gradient)"></path>
              </svg>