<!--?xml version="1.0" standalone="no"?-->
              <svg id="sw-js-blob-svg" viewBox="0 0 100 100" xmlns="http://www.w3.org/2000/svg" version="1.1">
                    <defs> 
                        <linearGradient id="sw-gradient" x1="0" x2="1" y1="1" y2="0">
                            <stop id="stop1" stop-color="rgba(33, 33, 33, 1)" offset="0%"></stop>
                            <stop id="stop2" stop-color="rgba(33, 33, 33, 1)" offset="100%"></stop>
                        </linearGradient>
                    </defs>
                <path fill="url(#sw-gradient)" d="M22,-29C28.5,-30,33.9,-23.9,35.6,-17.1C37.4,-10.3,35.5,-2.7,35.1,5.5C34.6,13.8,35.6,22.7,31.4,26.7C27.2,30.6,17.7,29.5,10.6,27.9C3.4,26.3,-1.5,24.2,-3.5,19.9C-5.4,15.7,-4.4,9.3,-8.3,6.3C-12.1,3.4,-21,3.8,-26,0.8C-31.1,-2.3,-32.3,-8.8,-30.5,-14.4C-28.7,-20,-23.8,-24.7,-18.2,-24.1C-12.6,-23.6,-6.3,-17.9,0.7,-19C7.7,-20.1,15.4,-28,22,-29Z" width="100%" height="100%" transform="translate(50 50)" stroke-width="0" style="transition: all 0.3s ease 0s;" stroke="url(#sw-gradient)"></path>
              </svg>