<!--?xml version="1.0" standalone="no"?-->
              <svg id="sw-js-blob-svg" viewBox="0 0 100 100" xmlns="http://www.w3.org/2000/svg" version="1.1">
                    <defs> 
                        <linearGradient id="sw-gradient" x1="0" x2="1" y1="1" y2="0">
                            <stop id="stop1" stop-color="rgba(255, 199, 54, 1)" offset="0%"></stop>
                            <stop id="stop2" stop-color="rgba(255, 199, 54, 1)" offset="100%"></stop>
                        </linearGradient>
                    </defs>
                <path fill="url(#sw-gradient)" d="M17.4,-25.3C24.5,-25.9,33.8,-25.4,36,-21C38.2,-16.6,33.3,-8.3,30.3,-1.7C27.4,4.9,26.3,9.7,24.2,14.3C22.2,18.9,19,23.2,14.8,24.5C10.6,25.7,5.3,23.8,-1.4,26.1C-8,28.4,-16,35,-21,34.2C-25.9,33.4,-27.8,25.3,-30.6,18.3C-33.5,11.4,-37.3,5.7,-37.2,0C-37.1,-5.6,-33.1,-11.2,-29.2,-16.3C-25.3,-21.4,-21.5,-26,-16.6,-26.7C-11.8,-27.4,-5.9,-24.3,-0.4,-23.6C5.1,-23,10.2,-24.7,17.4,-25.3Z" width="100%" height="100%" transform="translate(50 50)" stroke-width="0" style="transition: all 0.3s ease 0s;" stroke="url(#sw-gradient)"></path>
              </svg>