<!--?xml version="1.0" standalone="no"?-->
              <svg id="sw-js-blob-svg" viewBox="0 0 100 100" xmlns="http://www.w3.org/2000/svg" version="1.1">
                    <defs> 
                        <linearGradient id="sw-gradient" x1="0" x2="1" y1="1" y2="0">
                            <stop id="stop1" stop-color="rgba(33, 33, 33, 1)" offset="0%"></stop>
                            <stop id="stop2" stop-color="rgba(33, 33, 33, 1)" offset="100%"></stop>
                        </linearGradient>
                    </defs>
                <path fill="url(#sw-gradient)" d="M2.4,-7.1C4.7,-2.7,9.4,-5.4,17,-5.4C24.5,-5.4,34.9,-2.7,39.5,2.6C44,8,42.7,15.9,37.5,20C32.3,24.1,23.2,24.3,16.3,28.3C9.4,32.4,4.7,40.4,2.2,36.7C-0.4,33,-0.8,17.5,-7.5,13.3C-14.2,9.1,-27.2,16.2,-33.7,15.8C-40.2,15.5,-40.1,7.7,-35.7,2.5C-31.3,-2.6,-22.5,-5.3,-18.5,-9.9C-14.5,-14.6,-15.3,-21.2,-13,-25.7C-10.7,-30.1,-5.4,-32.3,-2.7,-27.7C0,-23,0,-11.5,2.4,-7.1Z" width="100%" height="100%" transform="translate(50 50)" stroke-width="0" style="transition: all 0.3s ease 0s;" stroke="url(#sw-gradient)"></path>
              </svg>