<!--?xml version="1.0" standalone="no"?-->
              <svg id="sw-js-blob-svg" viewBox="0 0 100 100" xmlns="http://www.w3.org/2000/svg" version="1.1">
                    <defs> 
                        <linearGradient id="sw-gradient" x1="0" x2="1" y1="1" y2="0">
                            <stop id="stop1" stop-color="rgba(255, 199, 54, 1)" offset="0%"></stop>
                            <stop id="stop2" stop-color="rgba(255, 199, 54, 1)" offset="100%"></stop>
                        </linearGradient>
                    </defs>
                <path fill="url(#sw-gradient)" d="M16.1,-27.8C23,-24,32,-23.8,35.6,-19.8C39.1,-15.8,37.3,-7.9,37.6,0.2C38,8.3,40.6,16.6,37.7,21.8C34.8,27,26.4,29,19.2,28.2C12,27.4,6,23.7,0.3,23.1C-5.3,22.6,-10.7,25.1,-17.9,26C-25.1,26.8,-34.1,25.9,-38.8,21.2C-43.4,16.6,-43.6,8.3,-39.5,2.4C-35.4,-3.6,-27,-7.2,-21.3,-10C-15.7,-12.9,-12.9,-15.1,-9.8,-21.1C-6.7,-27.1,-3.3,-36.9,0.7,-38C4.6,-39.2,9.3,-31.7,16.1,-27.8Z" width="100%" height="100%" transform="translate(50 50)" stroke-width="0" style="transition: all 0.3s ease 0s;" stroke="url(#sw-gradient)"></path>
              </svg>