<!--?xml version="1.0" standalone="no"?-->
              <svg id="sw-js-blob-svg" viewBox="0 0 100 100" xmlns="http://www.w3.org/2000/svg" version="1.1">
                    <defs> 
                        <linearGradient id="sw-gradient" x1="0" x2="1" y1="1" y2="0">
                            <stop id="stop1" stop-color="rgba(33, 33, 33, 1)" offset="0%"></stop>
                            <stop id="stop2" stop-color="rgba(33, 33, 33, 1)" offset="100%"></stop>
                        </linearGradient>
                    </defs>
                <path fill="url(#sw-gradient)" d="M5.3,-13C7.8,-6.5,11.6,-6.8,18.8,-4.6C25.9,-2.5,36.4,2.1,34.2,3.7C32.1,5.2,17.3,3.7,9.7,3.2C2.1,2.7,1.6,3.1,0.3,5.8C-1,8.4,-3.1,13.1,-9.1,17.6C-15.1,22,-25,26.1,-25.6,23.3C-26.2,20.5,-17.7,10.9,-18.1,3.1C-18.5,-4.8,-27.9,-10.9,-26.7,-11.6C-25.5,-12.4,-13.8,-7.8,-7.6,-12.5C-1.4,-17.3,-0.7,-31.5,0.3,-32C1.3,-32.5,2.7,-19.4,5.3,-13Z" width="100%" height="100%" transform="translate(50 50)" stroke-width="0" style="transition: all 0.3s ease 0s;" stroke="url(#sw-gradient)"></path>
              </svg>