<!--?xml version="1.0" standalone="no"?-->
              <svg id="sw-js-blob-svg" viewBox="0 0 100 100" xmlns="http://www.w3.org/2000/svg" version="1.1">
                    <defs> 
                        <linearGradient id="sw-gradient" x1="0" x2="1" y1="1" y2="0">
                            <stop id="stop1" stop-color="rgba(33, 33, 33, 1)" offset="0%"></stop>
                            <stop id="stop2" stop-color="rgba(33, 33, 33, 1)" offset="100%"></stop>
                        </linearGradient>
                    </defs>
                <path fill="url(#sw-gradient)" d="M17.9,-27.3C19.4,-26.9,14.1,-15.5,15,-8.4C15.8,-1.3,22.8,1.5,24.3,4.7C25.7,7.9,21.7,11.6,17.4,13.1C13.1,14.7,8.5,14.2,5.2,13.1C1.8,12,-0.4,10.4,-4,10.7C-7.7,11,-12.8,13.3,-18.7,12.7C-24.6,12.2,-31.2,8.8,-33,4.1C-34.7,-0.7,-31.5,-6.8,-26,-8.9C-20.5,-11.1,-12.6,-9.2,-7.9,-8.1C-3.1,-7,-1.6,-6.7,3.3,-11.9C8.2,-17,16.4,-27.7,17.9,-27.3Z" width="100%" height="100%" transform="translate(50 50)" stroke-width="0" style="transition: all 0.3s ease 0s;" stroke="url(#sw-gradient)"></path>
              </svg>