<!--?xml version="1.0" standalone="no"?-->
              <svg id="sw-js-blob-svg" viewBox="0 0 100 100" xmlns="http://www.w3.org/2000/svg" version="1.1">
                    <defs> 
                        <linearGradient id="sw-gradient" x1="0" x2="1" y1="1" y2="0">
                            <stop id="stop1" stop-color="rgba(255, 199, 54, 1)" offset="0%"></stop>
                            <stop id="stop2" stop-color="rgba(255, 199, 54, 1)" offset="100%"></stop>
                        </linearGradient>
                    </defs>
                <path fill="url(#sw-gradient)" d="M13.2,-22.9C17.4,-20.5,21.2,-17.5,24.3,-13.6C27.4,-9.6,29.7,-4.8,31.7,1.2C33.8,7.2,35.5,14.4,32.6,18.4C29.6,22.5,21.8,23.5,15.6,27.3C9.4,31.1,4.7,37.8,0,37.9C-4.8,38,-9.6,31.5,-16.3,27.9C-22.9,24.3,-31.4,23.7,-33.7,19.5C-36,15.4,-32,7.7,-31.4,0.4C-30.7,-7,-33.5,-13.9,-32.4,-20.2C-31.3,-26.4,-26.4,-31.8,-20.4,-33.2C-14.4,-34.5,-7.2,-31.6,-1.3,-29.3C4.5,-27,9,-25.3,13.2,-22.9Z" width="100%" height="100%" transform="translate(50 50)" stroke-width="0" style="transition: all 0.3s ease 0s;" stroke="url(#sw-gradient)"></path>
              </svg>