<?xml version="1.0" encoding="UTF-8" standalone="no"?>
<!--?xml version="1.0" standalone="no"?-->

<svg
   id="sw-js-blob-svg"
   viewBox="0 0 100 100"
   version="1.1"
   sodipodi:docname="blob_y10.svg"
   inkscape:version="1.3 (0e150ed6c4, 2023-07-21)"
   xmlns:inkscape="http://www.inkscape.org/namespaces/inkscape"
   xmlns:sodipodi="http://sodipodi.sourceforge.net/DTD/sodipodi-0.dtd"
   xmlns="http://www.w3.org/2000/svg"
   xmlns:svg="http://www.w3.org/2000/svg">
  <sodipodi:namedview
     id="namedview1"
     pagecolor="#ffffff"
     bordercolor="#000000"
     borderopacity="0.25"
     inkscape:showpageshadow="2"
     inkscape:pageopacity="0.0"
     inkscape:pagecheckerboard="0"
     inkscape:deskcolor="#d1d1d1"
     inkscape:zoom="8.61"
     inkscape:cx="50"
     inkscape:cy="50"
     inkscape:window-width="1920"
     inkscape:window-height="1057"
     inkscape:window-x="-8"
     inkscape:window-y="-8"
     inkscape:window-maximized="1"
     inkscape:current-layer="sw-js-blob-svg" />
  <defs
     id="defs1">
    <linearGradient
       id="sw-gradient"
       x1="-18.701297"
       x2="39.985835"
       y1="21.870705"
       y2="-36.816426"
       gradientTransform="matrix(-0.62842758,0.70666076,-0.7901914,-0.70271068,85.98361,-36.765902)"
       gradientUnits="userSpaceOnUse">
      <stop
         id="stop1"
         stop-color="rgba(33, 33, 33, 1)"
         offset="0%" />
      <stop
         id="stop2"
         stop-color="rgba(33, 33, 33, 1)"
         offset="100%" />
    </linearGradient>
  </defs>
  <path
     fill="url(#sw-gradient)"
     d="m 32.370295,46.817982 c 5.095801,-3.054966 20.146353,-2.248207 25.353969,-7.984124 5.166661,-5.827144 0.53134,-18.105736 1.859032,-24.182514 1.327691,-6.0767783 8.527167,-5.9107885 13.466296,-1.989691 4.8479,3.962053 7.394498,11.587984 10.641239,16.378462 3.246741,4.790478 7.243897,6.613317 8.859791,9.724408 1.666168,2.978906 1.174486,7.255383 -1.750464,9.774245 -2.833722,2.477907 -7.968527,3.248474 -10.150646,6.20116 -2.049936,3.002959 -1.147185,8.188038 -2.411384,9.522879 -1.2642,1.334841 -4.645075,-1.312739 -8.867594,-0.951726 -4.131291,0.320057 -9.104226,3.648709 -14.58531,4.136272 -5.440128,0.578791 -11.52059,-1.73378 -16.969819,-6.302795 -5.540458,-4.52806 -10.449682,-11.312566 -5.44511,-14.326576 z"
     width="100%"
     height="100%"
     stroke-width="0"
     style="fill:url(#sw-gradient);stroke:url(#sw-gradient)"
     stroke="url(#sw-gradient)"
     id="path1" />
</svg>
