<!--?xml version="1.0" standalone="no"?-->
              <svg id="sw-js-blob-svg" viewBox="0 0 100 100" xmlns="http://www.w3.org/2000/svg" version="1.1">
                    <defs> 
                        <linearGradient id="sw-gradient" x1="0" x2="1" y1="1" y2="0">
                            <stop id="stop1" stop-color="rgba(255, 199, 54, 1)" offset="0%"></stop>
                            <stop id="stop2" stop-color="rgba(255, 199, 54, 1)" offset="100%"></stop>
                        </linearGradient>
                    </defs>
                <path fill="url(#sw-gradient)" d="M19.8,-33C26.3,-30.7,32.4,-26.4,36.7,-20.6C40.9,-14.8,43.4,-7.4,42.3,-0.6C41.3,6.2,36.7,12.3,33.1,19.4C29.5,26.4,26.9,34.2,21.5,35.4C16.2,36.7,8.1,31.3,1.9,28.1C-4.4,24.9,-8.8,23.9,-15.7,23.5C-22.7,23.2,-32.2,23.7,-38.2,19.9C-44.2,16.1,-46.6,8,-44.2,1.4C-41.8,-5.3,-34.7,-10.6,-29,-14.9C-23.3,-19.1,-19,-22.4,-14.4,-25.8C-9.9,-29.2,-4.9,-32.7,0.9,-34.2C6.7,-35.8,13.4,-35.4,19.8,-33Z" width="100%" height="100%" transform="translate(50 50)" stroke-width="0" style="transition: all 0.3s ease 0s;" stroke="url(#sw-gradient)"></path>
              </svg>