<!--?xml version="1.0" standalone="no"?-->
              <svg id="sw-js-blob-svg" viewBox="0 0 100 100" xmlns="http://www.w3.org/2000/svg" version="1.1">
                    <defs> 
                        <linearGradient id="sw-gradient" x1="0" x2="1" y1="1" y2="0">
                            <stop id="stop1" stop-color="rgba(255, 199, 54, 1)" offset="0%"></stop>
                            <stop id="stop2" stop-color="rgba(255, 199, 54, 1)" offset="100%"></stop>
                        </linearGradient>
                    </defs>
                <path fill="url(#sw-gradient)" d="M15.1,-23.8C21.2,-22.6,28.8,-21.8,32.9,-17.9C36.9,-14,37.5,-7,37.1,-0.2C36.8,6.7,35.7,13.3,32.6,18.9C29.5,24.4,24.4,28.9,18.6,29.2C12.8,29.5,6.4,25.6,-0.5,26.5C-7.5,27.5,-14.9,33.1,-21.9,33.6C-28.9,34,-35.5,29.1,-39.5,22.6C-43.5,16.2,-45,8.1,-44,0.6C-43.1,-7,-39.6,-13.9,-33.8,-17.3C-28.1,-20.8,-20,-20.7,-14,-21.9C-7.9,-23.2,-4,-25.8,0.3,-26.2C4.5,-26.7,9,-25.1,15.1,-23.8Z" width="100%" height="100%" transform="translate(50 50)" stroke-width="0" style="transition: all 0.3s ease 0s;" stroke="url(#sw-gradient)"></path>
              </svg>