<svg viewBox="0 0 100 100" xmlns="http://www.w3.org/2000/svg">
  <defs>
    <linearGradient id="a" x1="0" x2="1" y1="1" y2="0">
      <stop stop-color="rgba(255, 199, 54, 1)" offset="0%"/>
      <stop stop-color="rgba(255, 199, 54, 1)" offset="100%"/>
    </linearGradient>
  </defs>
  <path fill="url(#a)" d="M16.1-27.8c6.9 3.8 15.9 4 19.5 8 3.5 4 1.7 11.9 2 20 .4 8.1 3 16.4.1 21.6-2.9 5.2-11.3 7.2-18.5 6.4C12 27.4 6 23.7.3 23.1c-5.6-.5-11 2-18.2 2.9-7.2.8-16.2-.1-20.9-4.8-4.6-4.6-4.8-12.9-.7-18.8 4.1-6 12.5-9.6 18.2-12.4 5.6-2.9 8.4-5.1 11.5-11.1C-6.7-27.1-3.3-36.9.7-38c3.9-1.2 8.6 6.3 15.4 10.2Z" transform="translate(50 50)" style="transition:all .3s ease 0s"/>
</svg>
