<!--?xml version="1.0" standalone="no"?-->
              <svg id="sw-js-blob-svg" viewBox="0 0 100 100" xmlns="http://www.w3.org/2000/svg" version="1.1">
                    <defs> 
                        <linearGradient id="sw-gradient" x1="0" x2="1" y1="1" y2="0">
                            <stop id="stop1" stop-color="rgba(33, 33, 33, 1)" offset="0%"></stop>
                            <stop id="stop2" stop-color="rgba(33, 33, 33, 1)" offset="100%"></stop>
                        </linearGradient>
                    </defs>
                <path fill="url(#sw-gradient)" d="M7.5,-15C12.4,-10.2,20.7,-13.5,22.9,-12.3C25.2,-11.2,21.3,-5.6,23.3,1.1C25.2,7.8,32.9,15.6,32.1,19.3C31.4,23,22.1,22.6,15.3,23.6C8.5,24.6,4.3,27,0.2,26.7C-4,26.4,-7.9,23.5,-8,18.6C-8,13.8,-4.2,7,-9.6,3.6C-15,0.1,-29.5,0.1,-32.9,-1.9C-36.3,-4,-28.4,-7.9,-22.9,-11.1C-17.4,-14.3,-14.3,-16.8,-10.8,-22.4C-7.4,-28,-3.7,-36.8,-1.2,-34.8C1.3,-32.7,2.7,-19.8,7.5,-15Z" width="100%" height="100%" transform="translate(50 50)" stroke-width="0" style="transition: all 0.3s ease 0s;" stroke="url(#sw-gradient)"></path>
              </svg>