<svg width="60" height="75" viewBox="0 0 60 75" version="1.1" id="svg18" xmlns:xlink="http://www.w3.org/1999/xlink" xmlns="http://www.w3.org/2000/svg" transform="matrix(6.123233995736766e-17,1,1,-6.123233995736766e-17,0,0)">
  <desc id="desc1">
    Created by Nikhil
  </desc>
  <defs id="defs1">
    <rect width="850" height="1000" id="artboard_1" x="0" y="0"/>
    <clipPath id="clip_1">
      <use xlink:href="#artboard_1" clip-rule="evenodd" id="use1"/>
    </clipPath>
  </defs>
  <g id="data_pipeline" clip-path="url(#clip_1)" transform="scale(0.07058824,0.075)">
    <g id="Group" transform="matrix(0.85876022,0,0,1.1400487,1.4162312e-4,2.2800974e-4)">
      <g id="yellow_group" transform="translate(384.9297,532.759)">
        <path d="M 108.8229,-46.635 V -69.5113 H 85.9466 63.0703 v -15.2476 -15.2475 h 22.8763 22.8763 v -22.8763 -22.8763 h 15.2476 15.2475 v 22.8763 22.8763 h 22.8764 22.8759 v 15.2475 15.2476 H 162.1944 139.318 v 22.8763 22.876 h -15.2475 -15.2476 z" id="Shape" stroke="none" fill="#ffcc00"/>
        <path d="m 286.6203,-174.10366 c -6.89,3.45 -8.42,10.14 -8.42,35.22 v 23.93 h 15.31 15.31 v -15.5 -15.5 l 46.51,0.96 c 33.88,0.57 49.57,1.72 58.38,4.02 68.72,17.59 118.86,67.740002 135.52,135.5000022 4.59,19.1399998 5.55,54.9299998 1.91,75.4099998 -12.63,72.349998 -62.01,126.139998 -134.75,146.809998 l -14.74,4.21 -267.97,0.96 -267.97,0.96 -12.06,6.51 c -18.18,9.95 -30.63,26.8 -33.88,45.55 l -1.34,8.23 h -61.25 -61.43 l 1.34,-15.89 c 5.36,-68.91 50.15,-130.35 112.16,-154.46 34.45,-13.209998 11.29,-12.25 306.25,-13.399998 l 267.01,-0.96 10.72,-4.98 c 13.97,-6.51 25.65,-18.38 31.97,-32.16 13.4,-28.33 0.19,-62.00999983 -30.63,-78.09 -9.95,-5.17 -11.1,-5.36 -47.85,-5.93 l -37.9,-0.77 v -15.12 -15.12 h -15.31 -15.31 v 23.93 c 0,25.6500002 1.53,31.7700002 9,35.2200002 2.87,1.34 20.29,2.1 48.04,2.1 37.52,0 44.41,0.38 49.96,3.4499998 11.1,5.55 14.55,12.06 14.55,27.18 0,15.12 -3.45,21.63 -14.55,27.18 -6.13,3.25 -22.59,3.45 -261.08,3.45 -152.93,0 -260.31,0.77 -268.93,1.91 -33.11,4.4 -65.46,16.65 -94.17,35.789998 -17.8,11.87 -45.75,39.81 -57.61,57.61 -20.48,30.82 -32.16,62.59 -36.18,99.3399 l -2.1,19.7101 h -15.13 -14.93 v 15.31 15.31 h 15.31 15.31 v 15.31 15.31 h 15.31 15.31 v -15.31 -15.31 h 61.26 61.25 v 15.31 15.31 h 15.31 15.31 v -15.31 -15.31 h 15.31 15.32 v -15.31 -15.31 h -15.5 -15.7 l 1.15,-6.89 c 1.34,-8.42 5.55,-14.93 12.25,-19.33 4.79,-3.25 21.44,-3.45 271.41,-4.59 238.11,-0.96 267.39,-1.34 278.69,-4.21 88.05,-21.82 150.45,-85.75 168.44,-172.649998 3.25,-14.74 3.25,-59.91 0,-74.64999983 -17.99,-86.89000017 -81.92,-152.35000217 -168.44,-172.45000217 -16.08,-3.83 -119.25,-5.74 -125.75,-2.49 z" id="path6-1" stroke="none" fill="#ffcc00"/>
        <path d="m 104.98531,39.408002 c -14.756705,-2.525 -34.93881,-11.45 -49.50241,-21.937 -21.7439,-15.527 -37.849,-37.078 -47.362,-63.67 -4.269689,-12.231 -5.0506,-17.271 -5.0506,-36.49 0,-19.218002 0.780911,-24.268902 5.0506,-36.489802 7.3731,-20.3849 16.1153,-34.1676 31.6423,-49.8873 15.7197,-15.527 29.5024,-24.2692 49.887305,-31.6423 12.230995,-4.26967 17.271795,-5.0506 36.489805,-5.0506 19.21899,0 24.269,0.78091 36.49,5.0506 20.38499,7.3731 34.168,16.1153 49.888,31.6423 15.527,15.7197 24.269,29.5024 31.642,49.8873 4.27,12.231 5.051,17.2718 5.051,36.489802 0,19.219 -0.781,24.27 -5.051,36.49 -7.373,20.385 -16.115,34.168 -31.642,49.888 -23.489,23.488 -49.117,35.334 -79.978,36.885 -9.31,0.396 -21.734,0 -27.555,-1.166 z m 42.89899,-31.054 c 41.348,-8.935 71.439,-46.977 71.439,-91.043 0,-52.605002 -40.567,-93.182202 -93.18299,-93.182202 -70.65741,0 -113.74973,71.0432 -83.08101,137.238202 5.436,12.038 26.9771,33.579 39.0154,39.015 20.77031,9.716 44.2586,12.434 65.8096,7.972 z" id="path2" stroke="none" fill="#ffcc00"/>
        <path d="m 390.48929,-497.459 v 15.31 h -15.31 -15.31 v 15.31 15.32 h 15.5 15.7 l -1.15,6.89 c -1.34,8.42 -5.55,14.93 -12.25,19.33 -4.79,3.25 -21.44,3.44 -271.41,4.59 -288.83,1.15 -271.41,0.38 -303.57,11.48 -53.21,18.18 -99.34,58.76 -124.61,109.87 -40.77,81.93 -23.93001,178.4 42.49,244.0503 29.86,29.67 64.89,48.81 107,58.57 16.84,4.02 116.179999,6.13001 124.409999,2.68001 8.23,-3.25 9.76,-9.19001 9.76,-35.41001 v -23.93 h -15.31 -15.31 v 15.5 15.5 l -46.319999,-0.96 c -34.07,-0.57 -49.77,-1.72 -58.57,-4.02 -69.29,-17.78 -118.29,-67.1703 -135.71,-136.6503 -4.59,-17.99 -4.59,-66.99 0,-84.99 14.74,-59.14 55.7,-107.38 108.53,-127.86 34.45,-13.21 11.29,-12.25 306.25,-13.4 l 267.01,-0.96 10.72,-4.98 c 19.14,-9 33.5,-27.75 37.13,-48.23 l 1.34,-7.08 h 61.06 61.06 v 8.42 c 0,4.59 -1.34,15.7 -2.87,24.69 -12.44,71.01 -62.21,124.99 -134.56,145.47 l -14.74,4.21 -267.01,0.96 -267.01,0.96 -10.72,4.98 c -31.39,14.74 -45.55,49.57 -31.96,78.48 6.32,13.78 17.99,25.65 31.96,32.16 10.15,4.79 12.44,4.98 47.66,5.55 l 36.749999,0.77 v 15.11 15.12 h 15.31 15.31 v -23.92 c 0,-25.65 -1.53,-31.77 -9,-35.22 -2.87,-1.34 -20.29,-2.11 -48.04,-2.11 -37.519999,0 -44.409999,-0.38 -49.959999,-3.44 -9.95,-4.98 -14.16,-12.06 -14.93,-24.69 -0.96,-12.82 2.87,-21.82 11.48,-28.14 5.36,-4.02 6.32,-4.02 271.8,-5.17 289.22,-1.15 271.8,-0.38 303.95,-11.48 53.02,-18.18 99.15,-58.76 124.61,-109.87 12.25,-24.5 18.95,-48.81 21.63,-78.09 l 1.34,-14.74 h 15.12 15.13 v -15.31 -15.31 h -15.31 -15.31 v -15.31 -15.31 h -15.31 -15.31 v 15.31 15.31 h -61.26 -61.25 v -15.31 -15.31 h -15.31 -15.31 v 15.3 z" id="path3-3" stroke="none" fill="#ffcc00"/>
      </g>
      <g id="Black_group" transform="matrix(0.1,0,0,-0.1,0,857.4702)">
        <path d="m 7654.1899,8421.704 v -153.1 h -153.1 -153.1 v -153.1 -153.2 h 155 157 l -11.5,-68.9 c -13.4,-84.2 -55.5,-149.3 -122.5,-193.3 -47.9,-32.5 -214.4,-34.4 -2714.1,-45.9 -2888.3,-11.5 -2714.1,-3.8 -3035.7,-114.8 -532.1,-181.8 -993.40001,-587.6 -1246.10001,-1098.7 -407.7,-819.3 -239.3001,-1784 424.9,-2440.503 298.60001,-296.7 648.90001,-488.1 1070.00001,-585.7 168.4,-40.2 1161.8,-61.3001 1244.1,-26.8001 82.3,32.5 97.6,91.9001 97.6,354.1001 v 239.3 h -153.1 -153.1 v -155 -155 l -463.2,9.6 c -340.7,5.7 -497.7,17.2 -585.7,40.2 -692.9,177.8 -1182.90001,671.703 -1357.10001,1366.503 -45.9,179.9 -45.9,669.9 0,849.9 147.4,591.4 557.00001,1073.8 1085.30001,1278.6 344.5,132.1 112.9,122.5 3062.5,134 l 2670.1,9.6 107.2,49.8 c 191.4,90 335,277.5 371.3,482.3 l 13.4,70.8 h 610.6 610.6 v -84.2 c 0,-45.9 -13.4,-157 -28.7,-246.9 -124.4,-710.1 -622.1,-1249.9 -1345.6,-1454.7 l -147.4,-42.1 -2670.1,-9.6 -2670.1,-9.6 -107.2,-49.8 c -313.9,-147.4 -455.5,-495.7 -319.6,-784.8 63.2,-137.8 179.9,-256.5 319.6,-321.6 101.5,-47.9 124.4,-49.8 476.6,-55.5 l 367.5,-7.7 v -151.1 -151.2 h 153.1 153.1 v 239.2 c 0,256.5 -15.3,317.7 -90,352.2 -28.7,13.4 -202.9,21.1 -480.4,21.1 -375.2,0 -444.1,3.8 -499.6,34.4 -99.5,49.8 -141.6,120.6 -149.3,246.9 -9.6,128.2 28.7,218.2 114.8,281.4 53.6,40.2 63.2,40.2 2718,51.7 2892.2,11.5 2718,3.8 3039.5,114.8 530.2,181.8 991.5,587.6 1246.1,1098.7 122.5,245 189.5,488.1 216.3,780.9 l 13.4,147.4 h 151.2 151.3 v 153.1 153.1 h -153.1 -153.1 v 153.1 153.1 h -153.1 -153.1 v -153.1 -153.1 h -612.6 -612.5 v 153.1 153.1 h -153.1 -153.1 v -153 z" id="path3" stroke="none" fill="#303235"/>
        <path d="m 4684.9,5491.7364 c -145.5,-24.9 -344.5,-112.9 -488.1,-216.3 -214.4,-153.1 -373.2,-365.6 -467,-627.8 -42.1,-120.6 -49.8,-170.3 -49.8,-359.8 0,-189.5 7.7,-239.3 49.8,-359.8 72.7,-201 158.9,-336.9 312,-491.9 155,-153.1 290.9,-239.3 491.9,-312 120.6,-42.1 170.3,-49.8 359.8,-49.8 189.5,0 239.3,7.6999 359.8,49.8 201,72.7 336.9,158.9 491.9,312 153.1,155 239.3,290.9 312,491.9 42.1,120.6 49.8,170.3 49.8,359.8 0,189.5 -7.7,239.3 -49.8,359.8 -72.7,201 -158.9,336.9 -312,491.9 -231.6,231.6 -484.3,348.4 -788.6,363.7 -91.8,3.9 -214.3,0 -271.7,-11.5 z m 423,-306.2 c 407.7,-88.1 704.4,-463.2 704.4,-897.7 0,-518.7 -400,-918.8 -918.8,-918.8 -696.7,0 -1121.5999,700.5 -819.2,1353.2 53.6,118.7 266,331.1 384.7,384.7 204.8,95.8 436.4,122.6 648.9,78.6 z" id="path4" stroke="none" fill="#303235"/>
        <path d="m 4739.4,4675.002 v -229.7 H 4509.7 4280 v -153.1 -153.1 h 229.7 229.7 v -229.7 -229.7 h 153.1 153.101 v 229.7 229.7 h 229.7 H 5505 v 153.1 153.1 h -229.699 -229.7 v 229.7 229.7 H 4892.5 4739.4 Z" id="path5" stroke="none" fill="#303235"/>
        <path d="m 6515.5,5188.1486 c -68.9,-34.5 -84.2,-101.4 -84.2,-352.2 v -239.3 h 153.1 153.1 v 155 155 l 465.1,-9.6 c 338.8,-5.7 495.7,-17.2 583.8,-40.2 687.2,-175.9 1188.6,-677.4 1355.2,-1355 45.9,-191.4 55.5,-549.3 19.1,-754.1 -126.3,-723.5 -620.1,-1261.4 -1347.5,-1468.1 l -147.4,-42.1 -2679.7,-9.6 -2679.7,-9.6 -120.6,-65.1 C 2004,1053.7486 1879.5,885.24858 1847,697.74858 l -13.4,-82.3 H 1221.1 606.8 l 13.4,158.9 c 53.6,689.10002 501.5,1303.50002 1121.6,1544.60002 344.5,132.1 112.9,122.5 3062.5,134 l 2670.1,9.6 107.2,49.8 c 139.7,65.1 256.5,183.8 319.7,321.6 134,283.3 1.9,620.1 -306.3,780.9 -99.5,51.7 -111,53.6 -478.5,59.3 l -379,7.7 v 151.2 151.2 h -153.1 -153.1 v -239.3 c 0,-256.5 15.3,-317.7 90,-352.2 28.7,-13.4 202.9,-21 480.4,-21 375.2,0 444.1,-3.8 499.6,-34.5 111,-55.5 145.5,-120.6 145.5,-271.8 0,-151.2 -34.5,-216.3 -145.5,-271.8 -61.3,-32.5 -225.9,-34.5 -2610.8,-34.5 -1529.3,0 -2603.1,-7.7 -2689.3,-19.1 -331.1,-44 -654.6,-166.5 -941.7,-357.9 -178,-118.7 -457.5,-398.1 -576.1,-576.1 -204.8,-308.2 -321.6,-625.9 -361.8,-993.39902 l -21,-197.101 H 149.3 0 v -153.1 -153.1 h 153.1 153.1 v -153.1 V 3.1485783 h 153.1 153.1 v 153.1000017 153.1 h 612.6 612.5 v -153.1 V 3.1485783 h 153.1 153.1 v 153.1000017 153.1 h 153.1 153.2 v 153.1 153.1 h -155 -157 l 11.5,68.9 c 13.4,84.2 55.5,149.3 122.5,193.3 47.9,32.5 214.4,34.5 2714.1,45.9 2381.1,9.6 2673.9,13.4 2786.9,42.1 880.5,218.20002 1504.5,857.50002 1684.4,1726.50002 32.5,147.4 32.5,599.1 0,746.5 -179.9,868.9 -819.2,1523.5 -1684.4,1724.5 -160.8,38.3 -1192.5,57.4 -1257.5,24.9 z" id="path6" stroke="none" fill="#303235"/>
      </g>
      <path d="m 736.4358,695.43715 c 0,-5.52285 4.47715,-10 10,-10 5.5228,0 10,4.47715 10,10 0,5.5228 -4.4772,10 -10,10 -5.52285,0 -10,-4.4772 -10,-10 z" id="Oval" stroke="none" fill="#888888"/>
      <path d="m 492.4358,668.94725 v 10.51 h -63 -63 v -10.51 -10.51 h 63 63 z" id="path7" stroke="none" fill="#777777"/>
      <path d="m 360.1858,666.92715 v 10.51 h -63 -63 v -10.51 -10.51 h 63 63 z" id="path8" stroke="none" fill="#888888"/>
      <path d="m 726.9358,695.93715 v -10.5 h -209.5 -209.5 v 10.5 10.5 h 209.5 209.5 z" id="path9" stroke="none" fill="#999999"/>
      <path d="m 536.4358,667.43715 c 0,-5.52285 4.47715,-10 10,-10 5.5228,0 10,4.47715 10,10 0,5.5228 -4.4772,10 -10,10 -5.52285,0 -10,-4.4772 -10,-10 z" id="path10" stroke="none" fill="#888888"/>
      <path d="m 652.80582,210.28493 c 0,-5.52285 4.47715,-10 10,-10 5.5228,0 10,4.47715 10,10 0,5.5228 -4.4772,10 -10,10 -5.52285,0 -10,-4.4772 -10,-10 z" id="path11" stroke="none" fill="#777777"/>
      <path d="m 610.55582,181.77493 v 10.51 h -63 -63 v -10.51 -10.51 h 63 63 z" id="path12" stroke="none" fill="#999999"/>
      <path d="m 643.30582,210.28493 v -10 h -166 -166 v 10 10 h 166 166 z" id="path13" stroke="none" fill="#888888"/>
      <path d="m 452.80582,182.28493 c 0,-5.52285 4.47715,-10 10,-10 5.5228,0 10,4.47715 10,10 0,5.5228 -4.4772,10 -10,10 -5.52285,0 -10,-4.4772 -10,-10 z" id="path14" stroke="none" fill="#888888"/>
      <path d="m 345.55582,181.77493 v 10.51 h -63 -63 v -10.51 -10.51 h 63 63 z" id="path15" stroke="none" fill="#888888"/>
      <path d="m 762.55582,181.28493 c 0,-5.52285 4.47715,-10 10,-10 5.5228,0 10,4.47715 10,10 0,5.5228 -4.4772,10 -10,10 -5.52285,0 -10,-4.4772 -10,-10 z" id="path16" stroke="none" fill="#888888"/>
      <path d="m 255.49025,436.36455 c 0,-5.52285 4.47715,-10 10,-10 5.5228,0 10,4.47715 10,10 0,5.5228 -4.4772,10 -10,10 -5.52285,0 -10,-4.4772 -10,-10 z" id="path17" stroke="none" fill="#888888"/>
      <path d="m 834.87432,503.19827 c 0,-5.52285 4.47715,-10 10,-10 5.5228,0 10,4.47715 10,10 0,5.5228 -4.4772,10 -10,10 -5.52285,0 -10,-4.4772 -10,-10 z" id="path18" stroke="none" fill="#888888"/>
    </g>
  </g>
</svg>
