<?xml version="1.0" encoding="UTF-8" standalone="no"?>
<svg version="1.1" width="230" height="55" id="svg2" xmlns="http://www.w3.org/2000/svg">
  <defs id="defs2"/>
  <path fill="#2f2f2f" d="M 38.044622,52.854047 C 38.044622,54.602602 37.456303,55 36.475771,55 h -4.379707 c -0.980531,0 -1.830325,-0.556358 -2.484013,-1.669075 L 8.3018336,17.882949 H 8.1710961 V 52.933527 C 8.1710961,54.443642 7.5827774,55 6.4715078,55 H 1.764957 C 0.52295042,55 0,54.602602 0,53.013005 V 2.145953 C 0,0.47687828 0.58831889,0 1.764957,0 H 6.0139269 C 7.0598272,0 7.5827774,0.39739857 8.2364643,1.5101162 L 29.742788,37.43497 h 0.130738 V 2.0664742 C 29.873526,0.556358 30.461845,0 31.573114,0 h 4.902657 c 1.372745,0 1.568851,0.87427765 1.568851,2.145953 z M 68.996732,5.007226 c 0,1.2716753 -0.457581,1.6690747 -1.372744,1.6690747 h -3.72602 V 48.3237 h 3.529914 c 0.915162,0 1.372744,0.715317 1.372744,1.669074 v 3.417631 C 68.800626,54.364161 68.473782,55 67.623988,55 H 52.066222 c -0.849794,0 -1.307375,-0.635839 -1.307375,-1.510115 v -3.57659 c 0,-1.112718 0.392212,-1.589595 1.307375,-1.589595 h 3.464544 V 6.6763007 h -3.791388 c -0.915163,0 -1.307375,-0.556358 -1.307375,-1.5895959 V 1.589595 C 50.432003,0.71531822 50.824215,0 51.60864,0 h 16.015348 c 0.915163,0 1.372744,0.71531822 1.372744,1.5101162 z m 45.986928,48.959537 c 0,0.635839 -0.39221,1.033237 -1.0459,1.033237 h -6.53688 c -1.56884,0 -2.28791,-0.635839 -3.1377,-1.986995 L 90.14353,30.99711 H 90.012792 V 53.013005 C 90.012792,54.443642 89.555207,55 88.443937,55 h -5.229502 c -1.176634,0 -1.634219,-0.556358 -1.634219,-1.986995 V 1.9075147 C 81.580216,0.556358 82.168535,0 83.214435,0 h 5.229502 c 1.0459,0 1.568855,0.47687828 1.568855,1.9075147 V 24.400289 H 90.14353 L 103.6095,1.4306365 C 104.19781,0.47687828 104.98224,0 106.02814,0 h 5.2295 c 0.65369,0 1.0459,0.47687828 1.0459,1.033237 0,0.317919 -0.0654,0.6358378 -0.26147,0.9537575 L 97.007248,26.546244 114.39534,52.536128 c 0.32684,0.476877 0.58832,1.033235 0.58832,1.430635 z m 44.67955,-0.953758 C 159.66321,54.443642 159.20563,55 158.09436,55 h -5.16413 c -1.17664,0 -1.69959,-0.556358 -1.69959,-1.986995 V 30.838149 H 132.66591 V 53.013005 C 132.66591,54.443642 132.14296,55 131.03169,55 h -5.09876 c -1.17664,0 -1.76496,-0.556358 -1.76496,-1.986995 V 1.9075147 C 124.16797,0.556358 124.88703,0 125.93293,0 h 5.09876 c 1.0459,0 1.63422,0.47687828 1.63422,1.9075147 V 22.651735 h 18.56473 V 1.9075147 C 151.23064,0.556358 151.88433,0 152.93023,0 h 5.16413 c 1.0459,0 1.56885,0.47687828 1.56885,1.9075147 z M 190.87679,5.007226 c 0,1.2716753 -0.45757,1.6690747 -1.37273,1.6690747 h -3.72603 V 48.3237 h 3.52992 c 0.91516,0 1.37274,0.715317 1.37274,1.669074 v 3.417631 C 190.68069,54.364161 190.35385,55 189.50406,55 h -15.55777 c -0.8498,0 -1.30738,-0.635839 -1.30738,-1.510115 v -3.57659 c 0,-1.112718 0.39222,-1.589595 1.30738,-1.589595 h 3.46454 V 6.6763007 h -3.79139 c -0.91516,0 -1.30737,-0.556358 -1.30737,-1.5895959 V 1.589595 C 172.31207,0.71531822 172.70428,0 173.4887,0 h 16.01536 c 0.91516,0 1.37273,0.71531822 1.37273,1.5101162 z M 230,53.092486 C 230,54.523121 229.41168,55 228.43115,55 h -23.27128 c -1.17663,0 -1.69959,-0.476879 -1.69959,-2.225433 V 1.9869945 C 203.46028,0.71531822 203.98324,0 205.02914,0 h 5.22949 c 1.17664,0 1.63423,0.556358 1.63423,2.0664742 V 46.495665 h 16.53829 c 1.11127,0 1.56885,0.635838 1.56885,1.828035 z" id="path1" style="stroke-width:0.90099"/>
</svg>
