 <svg  version="1.0" xmlns="http://www.w3.org/2000/svg"  width="600.000000pt" height="360.000000pt" viewBox="0 0 600.000000 360.000000"  preserveAspectRatio="xMidYMid meet">  <g transform="translate(0.000000,360.000000) scale(0.100000,-0.100000)" fill="#f2f1f1" stroke="none"> <path d="M2415 3292 c-11 -2 -24 -8 -30 -12 -5 -4 -22 -10 -37 -14 -52 -12 -156 -82 -210 -141 -91 -100 -198 -253 -198 -284 0 -5 -13 -30 -30 -54 -19 -29 -30 -57 -30 -81 0 -32 -12 -69 -71 -218 -11 -26 -19 -58 -19 -72 0 -14 -9 -48 -20 -76 -11 -28 -20 -61 -20 -74 0 -12 -11 -50 -25 -84 -14 -34 -25 -80 -25 -103 0 -23 -11 -92 -24 -153 -13 -61 -29 -174 -36 -250 -6 -76 -15 -147 -21 -157 -5 -11 -12 -49 -15 -87 -7 -88 -37 -152 -70 -152 -7 0 -64 48 -127 108 -62 59 -127 119 -143 133 -41 37 -249 259 -284 305 -16 22 -41 53 -55 69 -14 17 -41 62 -61 101 -30 60 -34 75 -25 93 8 14 21 21 41 21 58 0 77 22 43 52 -10 8 -56 30 -101 49 -73 30 -89 41 -129 91 -49 62 -88 93 -104 82 -6 -3 -31 0 -56 7 -69 19 -72 11 -69 -184 1 -104 -3 -182 -11 -217 -9 -40 -13 -168 -13 -473 0 -230 -5 -461 -11 -513 -7 -64 -7 -105 0 -124 7 -20 5 -45 -4 -87 -8 -32 -14 -80 -15 -106 0 -47 -11 -132 -31 -248 -5 -31 -7 -63 -4 -71 9 -24 63 -49 118 -55 81 -8 84 -2 95 203 8 159 11 175 35 217 15 25 27 53 27 63 0 9 14 46 30 81 17 34 30 67 30 71 0 5 18 23 40 41 31 25 38 35 31 49 -27 48 -29 79 -10 111 13 22 24 29 36 25 14 -5 15 -4 4 4 -9 6 -13 31 -13 78 1 38 1 93 2 123 0 36 6 61 16 73 17 18 17 27 -2 190 -8 70 0 108 25 108 10 0 84 -67 172 -156 224 -226 299 -297 347 -329 24 -16 81 -75 127 -133 80 -100 84 -107 104 -195 12 -51 23 -130 25 -177 2 -47 11 -123 20 -170 16 -78 23 -107 62 -243 20 -71 43 -86 135 -87 102 0 111 9 80 93 -13 34 -26 87 -31 117 -4 30 -13 68 -19 83 -6 16 -11 54 -11 86 0 63 -29 188 -54 236 -9 17 -16 39 -16 51 0 11 -4 24 -9 30 -6 5 -15 61 -21 124 -13 144 -13 146 -1 255 5 50 10 164 10 255 1 117 6 177 16 205 8 22 14 71 15 108 0 42 6 80 16 99 8 16 19 65 23 108 5 47 17 95 30 120 11 22 24 59 27 82 4 23 13 53 21 67 7 14 13 33 13 42 0 9 3 18 6 22 8 8 74 169 74 181 0 4 13 25 29 45 15 20 31 47 34 61 8 31 81 147 136 216 23 28 41 56 41 61 0 12 157 156 180 165 10 4 21 11 25 17 14 23 61 12 84 -20 17 -23 29 -29 49 -27 22 2 27 9 30 33 3 44 -18 75 -63 92 -54 20 -106 30 -130 25z"/> <path d="M2735 3260 c-27 -28 -29 -35 -30 -117 0 -49 3 -101 7 -118 5 -16 9 -126 9 -243 0 -183 -2 -218 -17 -239 -13 -21 -15 -39 -10 -97 11 -120 13 -130 20 -147 4 -9 2 -50 -4 -90 -17 -104 -22 -227 -10 -234 12 -8 13 -66 1 -120 -5 -22 -12 -70 -16 -106 -5 -57 -11 -71 -41 -103 -36 -38 -41 -55 -23 -73 15 -15 -24 -53 -56 -53 -30 0 -72 -19 -79 -35 -2 -7 4 -26 14 -43 15 -24 29 -33 73 -42 87 -18 91 -27 82 -172 -4 -68 -9 -152 -10 -188 -2 -36 -10 -83 -18 -105 -19 -48 -21 -121 -6 -199 14 -68 34 -84 78 -62 31 17 81 71 81 89 0 6 14 26 32 44 29 30 31 35 21 67 -9 29 -7 40 14 77 20 36 22 47 13 72 -5 17 -10 76 -10 132 0 66 -5 118 -15 146 -28 79 3 93 59 27 79 -95 116 -143 116 -150 0 -3 8 -9 18 -12 10 -4 31 -26 46 -51 39 -61 147 -150 234 -191 61 -28 84 -34 141 -34 81 0 97 -12 88 -65 -5 -30 1 -45 34 -95 64 -97 119 -109 152 -34 12 29 19 92 26 234 5 107 14 215 19 240 20 93 71 228 110 292 22 36 42 79 44 94 3 28 5 29 57 29 46 0 57 -4 73 -25 23 -31 26 -150 8 -310 -23 -206 -23 -220 -4 -264 25 -57 72 -116 102 -127 64 -25 202 41 202 95 0 28 66 143 112 196 42 48 62 47 47 -3 -19 -65 -41 -295 -30 -315 32 -60 190 -89 249 -45 38 28 40 72 6 131 -71 120 -74 132 -58 208 8 40 14 110 12 164 -2 89 0 98 27 140 l28 44 -29 56 c-16 30 -47 74 -70 97 -50 53 -83 57 -115 14 -12 -16 -31 -32 -42 -35 -17 -4 -18 -7 -7 -20 7 -9 19 -16 26 -16 10 0 14 -13 14 -40 0 -21 5 -51 12 -65 8 -19 8 -42 -2 -96 l-12 -71 -101 -105 c-111 -115 -146 -139 -176 -124 -30 17 -33 37 -31 211 4 267 5 279 18 292 18 18 15 39 -14 94 -23 45 -90 117 -140 150 -66 44 -227 -50 -251 -145 -3 -13 -18 -43 -34 -65 -19 -30 -28 -57 -32 -101 -8 -109 -56 -198 -86 -161 -14 16 -29 235 -26 386 2 165 24 399 40 440 7 19 16 80 20 135 3 55 11 118 17 140 6 23 11 141 12 282 l1 243 -33 27 c-19 16 -56 51 -83 78 l-50 50 -24 -30 c-21 -25 -25 -41 -25 -98 0 -46 6 -78 18 -100 22 -42 25 -280 4 -342 -11 -31 -15 -133 -17 -460 -1 -275 -7 -463 -16 -545 -14 -121 -19 -445 -9 -524 4 -29 1 -41 -11 -49 -14 -8 -23 -4 -48 21 -17 17 -53 41 -79 54 -26 13 -55 33 -65 46 -10 12 -38 34 -63 48 -24 14 -44 31 -44 37 -1 19 -44 63 -88 91 -41 26 -75 65 -86 103 -4 11 -13 24 -21 27 -8 3 -15 16 -15 29 0 19 7 26 28 30 15 3 58 31 96 61 38 31 75 56 82 56 6 0 17 6 23 14 6 7 31 19 56 26 55 15 68 30 90 100 l17 55 -31 67 c-29 60 -47 77 -82 78 -11 0 -184 -180 -191 -199 -7 -20 -63 -66 -123 -101 -22 -13 -52 -34 -67 -48 -61 -56 -79 1 -77 240 1 95 5 192 10 216 5 24 14 118 19 210 14 240 43 443 76 520 8 18 14 42 14 53 0 27 44 69 72 69 13 0 33 -7 46 -15 30 -22 59 -5 68 40 5 29 1 40 -27 74 -19 21 -43 57 -54 78 -47 93 -86 141 -125 157 -22 9 -59 29 -81 46 -23 16 -47 30 -54 30 -6 0 -24 -13 -40 -30z"/> <path d="M5083 3027 c-16 -21 -19 -47 -21 -211 -2 -142 -6 -196 -18 -224 -13 -31 -13 -43 -3 -74 10 -30 9 -58 -4 -145 -8 -59 -14 -160 -13 -223 0 -63 -4 -128 -10 -145 -6 -19 -9 -96 -6 -205 6 -292 6 -317 -2 -545 -8 -187 -7 -229 6 -270 9 -28 21 -70 28 -95 18 -62 68 -165 91 -186 11 -10 46 -20 86 -24 57 -6 73 -4 99 11 17 11 38 19 47 19 19 0 77 57 77 76 0 7 -11 21 -24 29 -22 15 -28 15 -62 0 -34 -14 -39 -14 -55 1 -33 30 -68 124 -103 276 -9 37 -16 81 -16 98 0 17 -7 45 -16 62 -14 27 -16 62 -11 257 3 156 9 236 18 258 10 25 11 40 2 62 -8 22 -8 58 2 139 7 60 15 115 19 121 4 6 2 20 -4 31 -8 15 -7 27 6 51 16 33 14 72 -9 137 -13 39 5 80 60 137 27 28 42 35 73 35 50 0 76 32 60 74 -5 15 -9 48 -8 74 1 26 -6 70 -14 97 -46 143 -48 155 -29 165 12 6 22 5 29 -2 23 -23 23 1 0 28 -51 60 -104 94 -145 94 -8 0 -26 9 -40 20 -34 27 -67 25 -90 -3z"/> <path d="M2108 2099 c-42 -22 -42 -22 -27 -51 8 -15 8 -27 -2 -45 -13 -24 -11 -27 31 -64 25 -22 63 -52 85 -66 l39 -26 54 19 c40 13 60 27 78 53 31 46 30 55 -7 102 -26 33 -37 39 -68 39 -28 0 -44 7 -66 30 -34 35 -64 38 -117 9z"/> <path d="M4539 2102 l-37 -16 3 -65 c1 -43 6 -66 15 -69 7 -3 25 -17 39 -31 30 -31 93 -71 110 -71 34 0 108 44 129 77 21 32 23 73 3 73 -3 0 -15 14 -24 30 -15 25 -25 30 -55 30 -27 0 -46 9 -71 30 -38 33 -59 36 -112 12z"/> <path d="M2112 1640 c-15 -16 -32 -30 -39 -30 -7 0 -13 -7 -13 -15 0 -14 11 -19 37 -16 7 1 12 -16 12 -46 1 -26 2 -79 2 -118 2 -74 -15 -262 -31 -355 -15 -87 -23 -196 -17 -221 10 -40 89 -74 166 -73 59 0 66 3 92 32 16 18 29 41 29 51 0 10 -17 48 -39 82 -58 97 -67 128 -53 189 7 28 12 99 12 156 0 94 2 108 25 144 14 22 25 49 25 61 0 31 -83 151 -118 172 -42 24 -60 21 -90 -13z"/> <path d="M777 953 c-13 -12 -7 -43 7 -43 16 0 25 19 18 38 -5 13 -15 16 -25 5z"/> </g> </svg> 